PathFileType	4	(X/Y/Z)	C:/Users/beibeiliu/ov580/test_trc/User3\sequence.16_training_dense_left.trc
DataRate	CameraRate	NumFrames	NumMarkers	Units	OrigDataRate	OrigDataStartFrame	OrigNumFrames
120	120	13	19	mm	120	1	73
Frame#	Time	ThumbCMC			ThumbMCP			ThumbIP			ThumbTip			IndexMCP			IndexPIP			IndexTip			MiddleMCP			MiddlePIP			MiddleTip			RingMCP			RingPIP			RingTip			PinkyMCP			PinkyPIP			PinkyTip			BackHand1			BackHand2			BackHand3	
		X0	Y0	Z0	X1	Y1	Z1	X2	Y2	Z2	X3	Y3	Z3	X4	Y4	Z4	X5	Y5	Z5	X6	Y6	Z6	X7	Y7	Z7	X8	Y8	Z8	X9	Y9	Z9	X10	Y10	Z10	X11	Y11	Z11	X12	Y12	Z12	X13	Y13	Z13	X14	Y14	Z14	X15	Y15	Z15	X16	Y16	Z16	X17	Y17	Z17	X18	Y18	Z18	
0	0	-45.7117	4.55768	45.2691	-29.247	-2.46731	20.3755	-12.6312	-5.60063	-5.59965	-7.69612	-13.655	-31.7471	-74.7516	22.0283	-27.5487	-67.7285	19.8286	-55.2212	-61.6084	7.52088	-84.435	-100.402	17.3107	-31.7316	-102.817	11.5087	-62.3393	-99.3991	-9.31634	-89.7601	-114.582	4.14992	-26.424	-118.828	-1.85057	-49.6261	-118.334	-19.3282	-73.2881	-131.125	-14.4772	-10.9814	-133.887	-23.0622	-29.6565	-129.628	-36.4045	-52.3389	-113.31	12.9702	26.718	-111.247	8.59174	61.6051	-82.2606	22.5289	40.396	
1	0.00833333	-48.0023	3.81045	43.4368	-29.2502	-1.13403	19.5472	-18.3342	-6.251	-5.59859	-8.87681	-13.7601	-30.5805	-75.8671	21.9491	-28.7546	-69.756	18.9599	-58.9306	-63.8029	6.79039	-84.5935	-100.795	17.3115	-34.0118	-102.391	12.5195	-59.8275	-99.895	-9.43644	-89.5168	-119.148	2.47075	-23.6352	-118.165	-2.43862	-49.664	-117.56	-21.8063	-77.4858	-128.705	-14.0589	-7.10075	-134.419	-25.2936	-34.1926	-133.666	-36.8188	-51.722	-115.232	9.97725	30.6459	-111.732	9.61986	59.2467	-82.2013	21.8544	38.8116	
2	0.0166667	-47.8513	3.27841	45.2505	-30.9541	-1.84708	22.0918	-15.016	-5.80993	-8.78678	-10.0012	-13.2839	-26.0967	-70.806	23.5118	-32.2124	-69.6738	19.428	-56.491	-60.2507	10.416	-80.8777	-102.62	17.1843	-30.2075	-102.617	12.1469	-60.4908	-97.6571	-5.99144	-88.7905	-114.208	4.80784	-22.093	-118.33	-4.24	-53.28	-118.621	-21.3124	-75.9712	-130.672	-13.2767	-8.21887	-134.707	-24.4087	-31.7095	-131.448	-36.757	-50.7149	-116.065	11.0169	30.4555	-110.495	8.75966	58.8422	-83.1084	21.078	41.8111	
3	0.025	-45.2169	5.67862	40.4957	-31.6514	-1.3676	18.9213	-16.5372	-5.64425	-6.83512	-8.4802	-12.7797	-24.9613	-73.3332	23.1434	-31.6081	-65.3735	20.7122	-59.8362	-65.4196	9.81071	-79.8363	-100.045	18.2769	-29.3679	-102.773	11.7377	-62.388	-100.114	-6.56872	-89.0076	-114.361	5.54062	-24.8793	-119.296	-3.51521	-51.9106	-117.763	-16.5991	-72.5135	-126.165	-11.4155	-7.45034	-131.645	-20.3241	-32.2715	-133.06	-34.7035	-51.8404	-114.404	11.7604	27.2795	-114.24	8.59104	58.1557	-82.1365	23.0012	38.8287	
4	0.0333333	-49.3896	3.25993	43.9517	-30.4597	-1.01404	17.0034	-13.8055	-5.49391	-5.64529	-6.6012	-12.8565	-27.6378	-71.0028	24.7601	-28.5912	-67.5263	22.1881	-55.5464	-61.2926	11.8884	-80.4521	-99.5373	20.8343	-35.5183	-100.218	11.7376	-65.147	-98.065	-4.86445	-88.7248	-118.637	3.7793	-23.866	-118.607	-2.6259	-54.2401	-117.896	-21.6589	-75.4955	-131.897	-13.4583	-9.96071	-130.971	-19.714	-31.6471	-132.205	-36.361	-52.3164	-115.903	13.3834	27.9017	-109.662	11.5817	56.0535	-82.7668	21.8082	38.3578	
5	0.0416667	-50.2586	3.50369	39.0778	-32.5149	-1.71841	17.0504	-18.0884	-6.43162	-10.3815	-8.88375	-14.6522	-30.289	-71.238	24.4577	-28.1741	-71.0252	19.4164	-60.135	-62.9937	10.2455	-81.0727	-103.84	18.9366	-34.5146	-102.001	12.7477	-63.8625	-99.4857	-12.2209	-87.0247	-120.47	4.89442	-24.3713	-121.875	-4.76723	-54.4341	-117.577	-25.4133	-71.263	-131.649	-10.9933	-10.546	-132.767	-19.6515	-31.5558	-128.41	-41.4984	-49.3638	-113.222	13.5848	30.2375	-112.466	9.44506	57.3156	-80.4886	22.2804	38.6887	
6	0.05	-49.895	4.15025	38.3223	-32.1625	-2.83903	14.9006	-21.6198	-10.8127	-7.49316	-15.1423	-17.9726	-30.2083	-76.8358	23.5801	-34.2897	-69.4016	21.1835	-57.5787	-66.7574	8.70286	-82.5078	-105.556	18.7193	-36.5136	-101.344	10.5798	-64.0103	-92.1512	-25.3425	-79.6108	-116.889	6.99597	-24.3473	-120.073	-6.62243	-53.627	-105.433	-37.1112	-63.2406	-134.986	-11.866	-12.11	-132.239	-26.3435	-37.2209	-119.378	-48.3005	-44.083	-113.285	12.2713	28.3952	-115.768	9.46184	57.4044	-85.714	22.9261	39.1009	
7	0.0583333	-53.2866	4.4975	42.0424	-36.7372	-4.86941	16.8217	-22.3736	-11.3245	-12.2599	-15.8905	-20.897	-31.3951	-78.4643	24.1348	-34.2974	-71.5425	19.2212	-63.6266	-70.6388	7.6957	-84.1823	-103.412	14.3004	-39.9692	-97.9135	-3.59334	-63.8683	-79.9165	-40.3394	-51.1604	-116.749	2.6286	-29.2084	-116.096	-21.8238	-50.3649	-98.9602	-45.7256	-37.1654	-135.193	-13.4954	-17.9141	-127.289	-31.1447	-34.7812	-105.187	-52.5678	-22.7187	-121.482	12.0115	26.2754	-119.294	11.4069	53.1741	-86.3486	26.1026	36.12	
8	0.0666667	-58.5375	3.85635	38.7513	-43.052	-5.7108	14.0102	-30.5264	-12.6242	-9.69424	-21.3392	-20.9508	-33.2801	-81.9988	23.0545	-33.065	-77.8381	18.0166	-65.1497	-70.891	5.98553	-88.9947	-102.057	6.77837	-39.2035	-94.0929	-24.4249	-54.2552	-82.0698	-40.6165	-21.9436	-117.49	-7.7843	-32.3307	-109.373	-36.4893	-38.7035	-92.7565	-42.1165	-8.29097	-135.344	-18.6638	-16.5388	-120.679	-40.6799	-26.8799	-104.251	-47.2647	0.762644	-123.295	14.113	21.7263	-124.119	11.9935	54.1562	-91.4646	24.054	35.5417	
9	0.075	-67.2191	4.5556	40.1673	-44.9476	-3.1995	16.0154	-29.057	-8.2785	-4.82505	-22.8847	-17.2947	-25.6139	-87.6298	21.7204	-35.9013	-88.0041	17.1667	-60.8445	-84.7328	8.29796	-87.4365	-103.309	-2.1988	-40.4035	-91.3061	-32.6972	-43.0212	-86.9024	-34.6999	-4.42913	-116.253	-15.0882	-30.7155	-110.193	-44.0742	-24.1596	-99.9797	-35.029	8.3239	-133.891	-20.8665	-15.8796	-117.535	-45.8912	-11.4062	-109.976	-35.6742	14.9104	-132.755	15.1621	20.0993	-131.105	14.9455	48.6953	-97.0022	25.6025	35.0814	
10	0.0833333	-72.4073	8.00065	35.5622	-54.386	0.788949	14.4316	-36.3864	-3.1282	-8.1811	-22.9051	-8.10415	-27.315	-100.913	21.8392	-38.9477	-98.6292	18.7789	-63.9037	-101.944	10.9258	-91.0906	-113.151	-6.24029	-40.2112	-101.458	-33.9837	-36.2855	-100.357	-29.0653	2.34583	-130.466	-17.6437	-25.1545	-117.435	-42.6555	-15.0802	-108.251	-26.1947	16.0439	-141.526	-20.2548	-14.5464	-124.401	-42.4045	-3.95808	-120.737	-26.7298	20.8744	-140.324	18.699	19.1002	-136.854	17.3912	46.7364	-106.038	28.004	32.0719	
11	0.0916667	-82.876	8.43743	33.3978	-60.0853	5.77245	11.4943	-42.9493	4.34658	-11.2596	-33.625	-0.0618443	-30.3139	-113.474	26.8553	-42.5231	-116.644	23.7637	-68.8644	-122.361	18.8686	-89.8776	-126.663	-1.0812	-39.3246	-117.415	-33.3198	-34.1661	-110.891	-21.7689	4.92499	-142.394	-10.7232	-24.4752	-128.081	-36.7884	-15.5688	-121.324	-24.2459	15.6285	-150.083	-17.8422	-16.6633	-137.341	-35.5601	-4.65036	-133.215	-19.9172	24.4385	-148.552	26.1166	16.6493	-144.865	22.9664	48.3894	-109.586	29.8943	26.6919	
12	0.1	-90.5549	10.977	24.1089	-73.0819	5.52119	3.74202	-50.3775	5.17139	-17.0125	-37.7499	3.07227	-34.4336	-125.109	27.4672	-47.5359	-129.222	24.9599	-72.2774	-137.513	19.4067	-92.7415	-137.144	-2.41275	-43.0201	-130.555	-33.9343	-34.4549	-122.793	-25.3046	0.765147	-155.522	-10.8841	-26.1036	-138.721	-36.405	-14.1242	-130.586	-21.9099	14.2511	-166.903	-13.938	-14.1233	-151.764	-34.5887	-4.40398	-140.726	-18.1953	23.2433	-151.38	27.9177	12.2177	-146.542	25.9106	47.5535	-117.346	30.0147	24.5987	
